<svg width="24" height="26" viewBox="0 0 24 26" fill="none" xmlns="http://www.w3.org/2000/svg">
<path d="M16.3805 0C16.4959 5.71855e-06 16.6107 0.00898648 16.7253 0.0215436C20.8118 0.312375 23.9859 3.76226 24 7.93111V18.0704C23.9848 22.4592 20.4811 26.0051 16.1688 25.9985V26H7.83115V25.9985C3.51833 26.0051 0.0143276 22.4582 0 18.0689V7.93111L0.0120968 7.52332C0.234187 3.32412 3.65274 -0.00492744 7.83115 0.00153883L16.3805 0ZM7.82964 2.36364C4.79702 2.35788 2.33275 4.85267 2.32258 7.9388V18.0612L2.33014 18.349C2.48688 21.301 4.89185 23.6419 7.82964 23.6364H16.1704C19.2014 23.6421 21.6648 21.1499 21.6774 18.0658V7.9388C21.6673 5.00841 19.4361 2.58192 16.5635 2.37749C16.541 2.37587 16.5178 2.37428 16.4955 2.37133C16.4576 2.36637 16.4194 2.36364 16.3805 2.36364H7.82964Z" fill="#442A76"/>
<path d="M16.78 17.5979C17.4096 17.5979 17.92 18.1357 17.92 18.799C17.9198 19.4621 17.4095 20 16.78 20H6.14C5.51053 20 5.00021 19.4621 5 18.799C5 18.1357 5.5104 17.5979 6.14 17.5979H16.78ZM15.26 12.7938C15.8896 12.7938 16.4 13.3315 16.4 13.9948C16.3998 14.658 15.8895 15.1959 15.26 15.1959H6.14C5.51053 15.1959 5.00021 14.658 5 13.9948C5 13.3315 5.5104 12.7938 6.14 12.7938H15.26ZM10.7 7.98968C11.3296 7.98968 11.84 8.5274 11.84 9.19071C11.8398 9.85383 11.3295 10.3917 10.7 10.3917H6.14C5.51053 10.3917 5.00021 9.85383 5 9.19071C5 8.5274 5.5104 7.98968 6.14 7.98968H10.7ZM15.64 1.20103C15.64 0.53772 16.1504 0 16.78 0C17.4096 0 17.92 0.53772 17.92 1.20103V6.84651H22.86C23.4896 6.84651 24 7.38423 24 8.04754C23.9997 8.71057 23.4894 9.24857 22.86 9.24857H16.78C16.1506 9.24857 15.6403 8.71057 15.64 8.04754V1.20103Z" fill="#442A76"/>
</svg>
