<svg width="24" height="28" viewBox="0 0 24 28" fill="none" xmlns="http://www.w3.org/2000/svg">
<path d="M16.4018 16C16.4235 16 16.446 16.0007 16.4677 16.0017C19.5384 16.1542 22.2602 18.0162 23.5198 20.816C24.4436 22.6269 23.9444 24.4234 22.7889 25.658C21.6771 26.8455 19.9541 27.5555 18.1639 27.5555H5.83406C4.04451 27.5555 2.3224 26.8453 1.2108 25.658C0.0700534 24.4393 -0.430317 22.675 0.445176 20.8871H0.44344C1.68836 18.0476 4.43187 16.1557 7.5285 16.0017C7.55024 16.0007 7.57271 16 7.59448 16H16.4018ZM7.64135 18.6667C5.56231 18.7774 3.72257 20.0505 2.88615 21.9583C2.87587 21.9817 2.86477 22.005 2.85316 22.0278C2.51898 22.684 2.6432 23.288 3.15698 23.8368C3.71475 24.4324 4.7064 24.8889 5.83406 24.8889H18.1639C19.2928 24.8889 20.2852 24.4324 20.8427 23.8368C21.3561 23.2883 21.4796 22.684 21.1448 22.0278C21.1332 22.0049 21.1221 21.9818 21.1118 21.9583C20.2754 20.0506 18.4356 18.7775 16.3566 18.6667H7.64135Z" fill="#442A76"/>
<path d="M16.0026 6.66666C16.0026 5.6058 15.5809 4.58868 14.8307 3.83854C14.0806 3.08839 13.0635 2.66666 12.0026 2.66666C9.79346 2.66666 8.0026 4.45752 8.0026 6.66666C8.0026 8.8758 9.79346 10.6667 12.0026 10.6667C14.2117 10.6667 16.0026 8.8758 16.0026 6.66666ZM18.6693 6.66666C18.6693 10.3486 15.6845 13.3333 12.0026 13.3333C8.3207 13.3333 5.33594 10.3486 5.33594 6.66666C5.33594 2.98477 8.3207 0 12.0026 0L12.3325 0.00868055C13.9805 0.0902651 15.5439 0.780857 16.7161 1.95312C17.9664 3.20336 18.6693 4.89855 18.6693 6.66666Z" fill="#442A76"/>
</svg>
