<svg width="26" height="26" viewBox="0 0 26 26" fill="none" xmlns="http://www.w3.org/2000/svg">
<path d="M17.1439 17.4261C14.7117 19.549 11.2141 19.5215 8.81105 17.3608L8.80637 17.3558C8.03615 16.6549 7.44196 15.7568 7.07978 14.7461C6.84269 14.0834 7.15189 13.3399 7.77042 13.0855C8.38903 12.8314 9.08297 13.1627 9.32043 13.8254C9.53847 14.4338 9.89585 14.9737 10.3595 15.3956V15.3973C11.8789 16.7583 14.088 16.7759 15.6252 15.4374L15.6236 15.4358C16.0939 15.021 16.4601 14.486 16.6877 13.8807C16.9355 13.2225 17.6341 12.9041 18.2486 13.1692C18.8633 13.4346 19.1603 14.183 18.9127 14.8415C18.5351 15.8459 17.929 16.733 17.1486 17.4211L17.1439 17.4261Z" fill="#442A76"/>
<path d="M23.4839 13C23.4839 10.2195 22.3785 7.55368 20.4124 5.58758C18.4463 3.62147 15.7805 2.51613 13 2.51613C7.20992 2.51613 2.51613 7.20992 2.51613 13C2.51613 18.7901 7.20992 23.4839 13 23.4839C18.7901 23.4839 23.4839 18.7901 23.4839 13ZM26 13C26 20.1797 20.1797 26 13 26C5.8203 26 0 20.1797 0 13C0 5.8203 5.8203 0 13 0C16.4478 0 19.7551 1.36898 22.193 3.80696C24.631 6.24493 26 9.55219 26 13Z" fill="#442A76"/>
<path d="M16.5373 7.62302C16.8239 7.0948 17.5834 6.85629 18.2329 7.08935C18.882 7.32243 19.1767 7.93894 18.8907 8.46708C18.3855 9.39834 17.2515 10 16 10C14.7485 10 13.6145 9.39834 13.1093 8.46708C12.8233 7.93894 13.118 7.32243 13.7671 7.08935C14.4166 6.85629 15.1761 7.0948 15.4627 7.62302C15.5567 7.79633 15.7671 7.90891 16 7.90891C16.2329 7.90891 16.4433 7.79633 16.5373 7.62302Z" fill="#442A76"/>
<path d="M10.5373 7.62302C10.8239 7.0948 11.5834 6.85629 12.2329 7.08935C12.882 7.32243 13.1767 7.93894 12.8907 8.46708C12.3855 9.39834 11.2515 10 10 10C8.74854 10 7.6145 9.39834 7.10934 8.46708C6.82325 7.93894 7.11796 7.32243 7.76715 7.08935C8.41664 6.85629 9.17608 7.0948 9.46271 7.62302C9.55672 7.79633 9.76709 7.90891 10 7.90891C10.2329 7.90891 10.4433 7.79633 10.5373 7.62302Z" fill="#442A76"/>
</svg>
