<svg width="24" height="24" viewBox="0 0 24 24" fill="none" xmlns="http://www.w3.org/2000/svg">
<path fill-rule="evenodd" clip-rule="evenodd" d="M13 19.0001C16.1157 18.9994 18.8559 16.9396 19.7224 13.9468C20.5889 10.954 19.373 7.74874 16.7396 6.0836C14.1062 4.41845 10.6892 4.69428 8.35695 6.76026C6.02471 8.82624 5.3387 12.185 6.674 15.0001L5 19.0001L9.392 18.0001C10.4809 18.6564 11.7286 19.0022 13 19.0001Z" stroke="white" stroke-width="1.5" stroke-linecap="round" stroke-linejoin="round"/>
<path fill-rule="evenodd" clip-rule="evenodd" d="M11.0396 11.066C10.4703 11.061 10.0123 10.5963 10.0156 10.027C10.0189 9.45769 10.4823 8.99837 11.0516 9C11.6209 9.00164 12.0816 9.46363 12.0816 10.033C12.0789 10.6058 11.6125 11.0682 11.0396 11.066V11.066Z" stroke="white" stroke-width="1.5" stroke-linecap="round" stroke-linejoin="round"/>
<path fill-rule="evenodd" clip-rule="evenodd" d="M13.9141 13.9183C13.9109 14.3399 14.1623 14.7219 14.5509 14.8856C14.9395 15.0493 15.3885 14.9624 15.688 14.6655C15.9874 14.3687 16.0782 13.9205 15.9179 13.5305C15.7575 13.1404 15.3778 12.8857 14.9561 12.8853C14.3832 12.883 13.9168 13.3454 13.9141 13.9183V13.9183Z" stroke="white" stroke-width="1.5" stroke-linecap="round" stroke-linejoin="round"/>
<path d="M10 10.0332C9.98604 13.5002 13.3 15.3302 14.959 14.9512" stroke="white" stroke-width="1.5" stroke-linecap="round"/>
</svg>
