<svg width="209" height="31" viewBox="0 0 209 31" fill="none" xmlns="http://www.w3.org/2000/svg">
<path d="M191.422 18.9307V15.7659L200.83 2.30151H205.519V15.4207H208.051V18.9307H205.519V23.016H201.491V18.9307H191.422ZM201.75 6.61704L195.852 15.4207H201.75V6.61704Z" fill="white"/>
<path d="M176.353 18.4704C178.194 16.936 179.662 15.6605 180.755 14.6439C181.848 13.6082 182.759 12.5341 183.488 11.4217C184.217 10.3092 184.581 9.21596 184.581 8.14187C184.581 7.16369 184.351 6.39648 183.891 5.84026C183.43 5.28404 182.721 5.00593 181.762 5.00593C180.803 5.00593 180.064 5.33199 179.546 5.98411C179.029 6.61706 178.76 7.48975 178.741 8.6022H174.828C174.905 6.30058 175.586 4.55519 176.871 3.36603C178.175 2.17686 179.825 1.58228 181.819 1.58228C184.006 1.58228 185.684 2.16727 186.854 3.33726C188.024 4.48806 188.609 6.01288 188.609 7.91171C188.609 9.40776 188.206 10.8367 187.401 12.1985C186.595 13.5603 185.674 14.7494 184.639 15.766C183.603 16.7633 182.251 17.9717 180.582 19.391H189.069V22.7283H174.857V19.7363L176.353 18.4704Z" fill="white"/>
<path d="M168.179 23.016L162.77 16.2262V23.016H158.742V1.72607H162.77V13.8383L168.121 7.07732H173.357L166.338 15.0754L173.415 23.016H168.179Z" fill="white"/>
<path d="M155.805 14.7014C155.805 15.2768 155.767 15.7947 155.69 16.255H144.038C144.134 17.4058 144.537 18.3072 145.247 18.9594C145.957 19.6115 146.829 19.9376 147.865 19.9376C149.361 19.9376 150.425 19.295 151.058 18.01H155.403C154.942 19.5444 154.06 20.8103 152.756 21.8076C151.452 22.7858 149.85 23.2749 147.951 23.2749C146.417 23.2749 145.036 22.9392 143.808 22.2679C142.6 21.5775 141.651 20.6089 140.96 19.3622C140.289 18.1154 139.953 16.6769 139.953 15.0466C139.953 13.3971 140.289 11.949 140.96 10.7023C141.631 9.45563 142.571 8.49662 143.78 7.82532C144.988 7.15401 146.378 6.81836 147.951 6.81836C149.466 6.81836 150.819 7.14442 152.008 7.79655C153.216 8.44867 154.146 9.3789 154.799 10.5873C155.47 11.7764 155.805 13.1478 155.805 14.7014ZM151.634 13.5506C151.615 12.5149 151.241 11.6901 150.512 11.0763C149.783 10.4434 148.891 10.1269 147.836 10.1269C146.839 10.1269 145.995 10.4338 145.304 11.0476C144.633 11.6422 144.221 12.4765 144.067 13.5506H151.634Z" fill="white"/>
<path d="M138.048 14.7014C138.048 15.2768 138.009 15.7947 137.933 16.255H126.281C126.377 17.4058 126.779 18.3072 127.489 18.9594C128.199 19.6115 129.071 19.9376 130.107 19.9376C131.603 19.9376 132.668 19.295 133.301 18.01H137.645C137.185 19.5444 136.302 20.8103 134.998 21.8076C133.694 22.7858 132.092 23.2749 130.193 23.2749C128.659 23.2749 127.278 22.9392 126.051 22.2679C124.842 21.5775 123.893 20.6089 123.202 19.3622C122.531 18.1154 122.195 16.6769 122.195 15.0466C122.195 13.3971 122.531 11.949 123.202 10.7023C123.874 9.45563 124.813 8.49662 126.022 7.82532C127.23 7.15401 128.621 6.81836 130.193 6.81836C131.709 6.81836 133.061 7.14442 134.25 7.79655C135.458 8.44867 136.389 9.3789 137.041 10.5873C137.712 11.7764 138.048 13.1478 138.048 14.7014ZM133.876 13.5506C133.857 12.5149 133.483 11.6901 132.754 11.0763C132.025 10.4434 131.133 10.1269 130.078 10.1269C129.081 10.1269 128.237 10.4338 127.547 11.0476C126.875 11.6422 126.463 12.4765 126.309 13.5506H133.876Z" fill="white"/>
<path d="M116.76 10.3858V18.0962C116.76 18.6333 116.885 19.0265 117.134 19.2758C117.403 19.506 117.844 19.621 118.458 19.621H120.328V23.0159H117.796C114.401 23.0159 112.704 21.3664 112.704 18.0675V10.3858H110.805V7.07725H112.704V3.13574H116.76V7.07725H120.328V10.3858H116.76Z" fill="white"/>
<path d="M100.803 23.2749C99.2688 23.2749 97.8878 22.9392 96.6603 22.2679C95.4327 21.5775 94.4641 20.6089 93.7545 19.3622C93.064 18.1154 92.7188 16.6769 92.7188 15.0466C92.7188 13.4163 93.0736 11.9778 93.7832 10.7311C94.5121 9.48439 95.4999 8.52539 96.7466 7.85409C97.9933 7.1636 99.3838 6.81836 100.918 6.81836C102.453 6.81836 103.843 7.1636 105.09 7.85409C106.337 8.52539 107.315 9.48439 108.024 10.7311C108.753 11.9778 109.118 13.4163 109.118 15.0466C109.118 16.6769 108.744 18.1154 107.996 19.3622C107.267 20.6089 106.269 21.5775 105.004 22.2679C103.757 22.9392 102.357 23.2749 100.803 23.2749ZM100.803 19.7649C101.532 19.7649 102.213 19.5923 102.846 19.2471C103.498 18.8826 104.016 18.3456 104.399 17.6359C104.783 16.9263 104.975 16.0632 104.975 15.0466C104.975 13.5314 104.572 12.371 103.766 11.5654C102.98 10.7407 102.012 10.3283 100.861 10.3283C99.7099 10.3283 98.7413 10.7407 97.9549 11.5654C97.1877 12.371 96.8041 13.5314 96.8041 15.0466C96.8041 16.5619 97.1781 17.7318 97.9261 18.5566C98.6934 19.3622 99.6524 19.7649 100.803 19.7649Z" fill="white"/>
<path d="M78.2544 9.3789C78.7722 8.65006 79.4819 8.04589 80.3834 7.56638C81.304 7.0677 82.3493 6.81836 83.5193 6.81836C84.8811 6.81836 86.1086 7.15401 87.2019 7.82532C88.3144 8.49662 89.187 9.45563 89.82 10.7023C90.4721 11.9299 90.7982 13.3588 90.7982 14.9891C90.7982 16.6194 90.4721 18.0675 89.82 19.3334C89.187 20.5801 88.3144 21.5487 87.2019 22.2392C86.1086 22.9296 84.8811 23.2749 83.5193 23.2749C82.3493 23.2749 81.3136 23.0351 80.4121 22.5556C79.5299 22.0761 78.8106 21.472 78.2544 20.7431V30.6113H74.2266V7.07729H78.2544V9.3789ZM86.684 14.9891C86.684 14.0301 86.4827 13.2053 86.0799 12.5149C85.6963 11.8052 85.1784 11.2681 84.5263 10.9037C83.8933 10.5393 83.2029 10.3571 82.4548 10.3571C81.726 10.3571 81.0355 10.5489 80.3834 10.9325C79.7504 11.2969 79.2326 11.834 78.8298 12.5436C78.4462 13.2533 78.2544 14.0876 78.2544 15.0466C78.2544 16.0056 78.4462 16.84 78.8298 17.5496C79.2326 18.2593 79.7504 18.8059 80.3834 19.1895C81.0355 19.554 81.726 19.7362 82.4548 19.7362C83.2029 19.7362 83.8933 19.5444 84.5263 19.1608C85.1784 18.7772 85.6963 18.2305 86.0799 17.5209C86.4827 16.8112 86.684 15.9673 86.684 14.9891Z" fill="white"/>
<path d="M70.2531 7.07731V23.016H66.1966V21.0021C65.6787 21.6926 64.9978 22.2392 64.1539 22.642C63.3291 23.0256 62.4277 23.2174 61.4495 23.2174C60.2028 23.2174 59.0999 22.9584 58.1409 22.4406C57.1819 21.9035 56.4243 21.1267 55.8681 20.1102C55.331 19.0745 55.0625 17.8469 55.0625 16.4276V7.07731H59.0903V15.8522C59.0903 17.1181 59.4068 18.0963 60.0397 18.7868C60.6727 19.4581 61.5358 19.7937 62.6291 19.7937C63.7415 19.7937 64.6142 19.4581 65.2471 18.7868C65.8801 18.0963 66.1966 17.1181 66.1966 15.8522V7.07731H70.2531ZM60.0685 5.17848C59.5315 5.17848 59.0807 4.99627 58.7163 4.63185C58.3519 4.26743 58.1697 3.81669 58.1697 3.27965C58.1697 2.74261 58.3519 2.29187 58.7163 1.92745C59.0807 1.54385 59.5315 1.35205 60.0685 1.35205C60.6056 1.35205 61.0563 1.54385 61.4207 1.92745C61.8043 2.29187 61.9961 2.74261 61.9961 3.27965C61.9961 3.81669 61.8043 4.26743 61.4207 4.63185C61.0563 4.99627 60.6056 5.17848 60.0685 5.17848ZM65.391 5.17848C64.8539 5.17848 64.4032 4.99627 64.0388 4.63185C63.6744 4.26743 63.4922 3.81669 63.4922 3.27965C63.4922 2.74261 63.6744 2.29187 64.0388 1.92745C64.4032 1.54385 64.8539 1.35205 65.391 1.35205C65.928 1.35205 66.3788 1.54385 66.7432 1.92745C67.1268 2.29187 67.3186 2.74261 67.3186 3.27965C67.3186 3.81669 67.1268 4.26743 66.7432 4.63185C66.3788 4.99627 65.928 5.17848 65.391 5.17848Z" fill="white"/>
<path d="M51.2439 2.93457V23.0161H47.216V14.4714H38.6138V23.0161H34.5859V2.93457H38.6138V11.1916H47.216V2.93457H51.2439Z" fill="white"/>
<path d="M0 14.3548C6.0806 14.9797 10.9134 19.8125 11.5384 25.8931H0V14.3548ZM25.8931 25.8931H24.0725C23.3991 12.9054 12.9877 2.49407 0 1.82061V0H25.8931V25.8931Z" fill="white"/>
</svg>
